<mxfile host="Electron" modified="2024-01-19T11:49:42.377Z" agent="Mozilla/5.0 (Macintosh; Intel Mac OS X 10_15_7) AppleWebKit/537.36 (KHTML, like Gecko) draw.io/22.1.21 Chrome/120.0.6099.109 Electron/28.1.0 Safari/537.36" etag="PdJpk9DlvmGTPxIWwOaE" version="22.1.21" type="device">
  <diagram name="Page-1" id="NV9xymlhzOysM9Apik_8">
    <mxGraphModel dx="1591" dy="1156" grid="1" gridSize="10" guides="1" tooltips="1" connect="1" arrows="1" fold="1" page="1" pageScale="1" pageWidth="1654" pageHeight="1169" math="0" shadow="0">
      <root>
        <mxCell id="0" />
        <mxCell id="1" parent="0" />
        <mxCell id="cZO8qI_o07ikzMSFgw-F-1" value="" style="aspect=fixed;sketch=0;html=1;dashed=0;whitespace=wrap;fillColor=#2875E2;strokeColor=#ffffff;points=[[0.005,0.63,0],[0.1,0.2,0],[0.9,0.2,0],[0.5,0,0],[0.995,0.63,0],[0.72,0.99,0],[0.5,1,0],[0.28,0.99,0]];shape=mxgraph.kubernetes.icon2;prIcon=user" vertex="1" parent="1">
          <mxGeometry x="151" y="130" width="50" height="48" as="geometry" />
        </mxCell>
        <mxCell id="cZO8qI_o07ikzMSFgw-F-2" value="" style="aspect=fixed;sketch=0;html=1;dashed=0;whitespace=wrap;fillColor=#2875E2;strokeColor=#ffffff;points=[[0.005,0.63,0],[0.1,0.2,0],[0.9,0.2,0],[0.5,0,0],[0.995,0.63,0],[0.72,0.99,0],[0.5,1,0],[0.28,0.99,0]];shape=mxgraph.kubernetes.icon2;prIcon=svc" vertex="1" parent="1">
          <mxGeometry x="160" y="260" width="50" height="48" as="geometry" />
        </mxCell>
        <mxCell id="cZO8qI_o07ikzMSFgw-F-3" value="" style="aspect=fixed;sketch=0;html=1;dashed=0;whitespace=wrap;fillColor=#2875E2;strokeColor=#ffffff;points=[[0.005,0.63,0],[0.1,0.2,0],[0.9,0.2,0],[0.5,0,0],[0.995,0.63,0],[0.72,0.99,0],[0.5,1,0],[0.28,0.99,0]];shape=mxgraph.kubernetes.icon2;prIcon=user" vertex="1" parent="1">
          <mxGeometry x="160" y="158" width="50" height="48" as="geometry" />
        </mxCell>
        <mxCell id="cZO8qI_o07ikzMSFgw-F-4" value="" style="aspect=fixed;sketch=0;html=1;dashed=0;whitespace=wrap;fillColor=#2875E2;strokeColor=#ffffff;points=[[0.005,0.63,0],[0.1,0.2,0],[0.9,0.2,0],[0.5,0,0],[0.995,0.63,0],[0.72,0.99,0],[0.5,1,0],[0.28,0.99,0]];shape=mxgraph.kubernetes.icon2;prIcon=user" vertex="1" parent="1">
          <mxGeometry x="189" y="142" width="50" height="48" as="geometry" />
        </mxCell>
        <mxCell id="cZO8qI_o07ikzMSFgw-F-18" value="" style="group" vertex="1" connectable="0" parent="1">
          <mxGeometry x="208" y="350" width="107" height="114" as="geometry" />
        </mxCell>
        <mxCell id="cZO8qI_o07ikzMSFgw-F-19" value="" style="rounded=1;whiteSpace=wrap;html=1;fillColor=none;dashed=1;" vertex="1" parent="cZO8qI_o07ikzMSFgw-F-18">
          <mxGeometry width="107" height="114" as="geometry" />
        </mxCell>
        <mxCell id="cZO8qI_o07ikzMSFgw-F-20" value="" style="aspect=fixed;sketch=0;html=1;dashed=0;whitespace=wrap;fillColor=#29ff7b;strokeColor=#ffffff;points=[[0.005,0.63,0],[0.1,0.2,0],[0.9,0.2,0],[0.5,0,0],[0.995,0.63,0],[0.72,0.99,0],[0.5,1,0],[0.28,0.99,0]];shape=mxgraph.kubernetes.icon2;prIcon=pod" vertex="1" parent="cZO8qI_o07ikzMSFgw-F-18">
          <mxGeometry x="3" y="4" width="50" height="48" as="geometry" />
        </mxCell>
        <mxCell id="cZO8qI_o07ikzMSFgw-F-21" value="" style="aspect=fixed;sketch=0;html=1;dashed=0;whitespace=wrap;fillColor=#29ff7b;strokeColor=#ffffff;points=[[0.005,0.63,0],[0.1,0.2,0],[0.9,0.2,0],[0.5,0,0],[0.995,0.63,0],[0.72,0.99,0],[0.5,1,0],[0.28,0.99,0]];shape=mxgraph.kubernetes.icon2;prIcon=pod" vertex="1" parent="cZO8qI_o07ikzMSFgw-F-18">
          <mxGeometry x="53" y="4" width="50" height="48" as="geometry" />
        </mxCell>
        <mxCell id="cZO8qI_o07ikzMSFgw-F-22" value="" style="aspect=fixed;sketch=0;html=1;dashed=0;whitespace=wrap;fillColor=#29ff7b;strokeColor=#ffffff;points=[[0.005,0.63,0],[0.1,0.2,0],[0.9,0.2,0],[0.5,0,0],[0.995,0.63,0],[0.72,0.99,0],[0.5,1,0],[0.28,0.99,0]];shape=mxgraph.kubernetes.icon2;prIcon=pod" vertex="1" parent="cZO8qI_o07ikzMSFgw-F-18">
          <mxGeometry x="28" y="44" width="50" height="48" as="geometry" />
        </mxCell>
        <mxCell id="cZO8qI_o07ikzMSFgw-F-23" value="v2.0" style="text;html=1;strokeColor=none;fillColor=none;align=center;verticalAlign=middle;whiteSpace=wrap;rounded=0;" vertex="1" parent="cZO8qI_o07ikzMSFgw-F-18">
          <mxGeometry x="23" y="84" width="60" height="30" as="geometry" />
        </mxCell>
        <mxCell id="cZO8qI_o07ikzMSFgw-F-29" value="" style="rounded=1;whiteSpace=wrap;html=1;fillColor=none;dashed=1;" vertex="1" parent="1">
          <mxGeometry x="199.75" y="342" width="123.5" height="128" as="geometry" />
        </mxCell>
        <mxCell id="cZO8qI_o07ikzMSFgw-F-30" value="" style="endArrow=classic;html=1;rounded=0;exitX=0.5;exitY=1;exitDx=0;exitDy=0;exitPerimeter=0;entryX=0.5;entryY=0;entryDx=0;entryDy=0;entryPerimeter=0;" edge="1" parent="1" source="cZO8qI_o07ikzMSFgw-F-3" target="cZO8qI_o07ikzMSFgw-F-2">
          <mxGeometry width="50" height="50" relative="1" as="geometry">
            <mxPoint x="208" y="340" as="sourcePoint" />
            <mxPoint x="258" y="290" as="targetPoint" />
          </mxGeometry>
        </mxCell>
        <mxCell id="cZO8qI_o07ikzMSFgw-F-31" value="" style="endArrow=classic;html=1;rounded=0;exitX=0.28;exitY=0.99;exitDx=0;exitDy=0;exitPerimeter=0;entryX=0.5;entryY=0;entryDx=0;entryDy=0;" edge="1" parent="1" source="cZO8qI_o07ikzMSFgw-F-2" target="cZO8qI_o07ikzMSFgw-F-11">
          <mxGeometry width="50" height="50" relative="1" as="geometry">
            <mxPoint x="195" y="216" as="sourcePoint" />
            <mxPoint x="195" y="270" as="targetPoint" />
          </mxGeometry>
        </mxCell>
        <mxCell id="cZO8qI_o07ikzMSFgw-F-32" value="" style="endArrow=classic;html=1;rounded=0;exitX=0.72;exitY=0.99;exitDx=0;exitDy=0;exitPerimeter=0;entryX=0.5;entryY=0;entryDx=0;entryDy=0;" edge="1" parent="1" source="cZO8qI_o07ikzMSFgw-F-2" target="cZO8qI_o07ikzMSFgw-F-29">
          <mxGeometry width="50" height="50" relative="1" as="geometry">
            <mxPoint x="184" y="318" as="sourcePoint" />
            <mxPoint x="132" y="352" as="targetPoint" />
          </mxGeometry>
        </mxCell>
        <mxCell id="cZO8qI_o07ikzMSFgw-F-33" value="Big Bang Deployment" style="text;html=1;strokeColor=none;fillColor=none;align=center;verticalAlign=middle;whiteSpace=wrap;rounded=0;fontSize=19;fontStyle=1" vertex="1" parent="1">
          <mxGeometry x="63" y="80" width="248" height="40" as="geometry" />
        </mxCell>
        <mxCell id="cZO8qI_o07ikzMSFgw-F-34" value="" style="aspect=fixed;sketch=0;html=1;dashed=0;whitespace=wrap;fillColor=#2875E2;strokeColor=#ffffff;points=[[0.005,0.63,0],[0.1,0.2,0],[0.9,0.2,0],[0.5,0,0],[0.995,0.63,0],[0.72,0.99,0],[0.5,1,0],[0.28,0.99,0]];shape=mxgraph.kubernetes.icon2;prIcon=user" vertex="1" parent="1">
          <mxGeometry x="456.75" y="130" width="50" height="48" as="geometry" />
        </mxCell>
        <mxCell id="cZO8qI_o07ikzMSFgw-F-35" value="" style="aspect=fixed;sketch=0;html=1;dashed=0;whitespace=wrap;fillColor=#2875E2;strokeColor=#ffffff;points=[[0.005,0.63,0],[0.1,0.2,0],[0.9,0.2,0],[0.5,0,0],[0.995,0.63,0],[0.72,0.99,0],[0.5,1,0],[0.28,0.99,0]];shape=mxgraph.kubernetes.icon2;prIcon=svc" vertex="1" parent="1">
          <mxGeometry x="465.75" y="260" width="50" height="48" as="geometry" />
        </mxCell>
        <mxCell id="cZO8qI_o07ikzMSFgw-F-36" value="" style="aspect=fixed;sketch=0;html=1;dashed=0;whitespace=wrap;fillColor=#2875E2;strokeColor=#ffffff;points=[[0.005,0.63,0],[0.1,0.2,0],[0.9,0.2,0],[0.5,0,0],[0.995,0.63,0],[0.72,0.99,0],[0.5,1,0],[0.28,0.99,0]];shape=mxgraph.kubernetes.icon2;prIcon=user" vertex="1" parent="1">
          <mxGeometry x="465.75" y="158" width="50" height="48" as="geometry" />
        </mxCell>
        <mxCell id="cZO8qI_o07ikzMSFgw-F-37" value="" style="aspect=fixed;sketch=0;html=1;dashed=0;whitespace=wrap;fillColor=#2875E2;strokeColor=#ffffff;points=[[0.005,0.63,0],[0.1,0.2,0],[0.9,0.2,0],[0.5,0,0],[0.995,0.63,0],[0.72,0.99,0],[0.5,1,0],[0.28,0.99,0]];shape=mxgraph.kubernetes.icon2;prIcon=user" vertex="1" parent="1">
          <mxGeometry x="494.75" y="142" width="50" height="48" as="geometry" />
        </mxCell>
        <mxCell id="cZO8qI_o07ikzMSFgw-F-38" value="" style="group" vertex="1" connectable="0" parent="1">
          <mxGeometry x="373.75" y="350" width="113.5" height="240" as="geometry" />
        </mxCell>
        <mxCell id="cZO8qI_o07ikzMSFgw-F-39" value="" style="rounded=1;whiteSpace=wrap;html=1;fillColor=none;dashed=1;" vertex="1" parent="cZO8qI_o07ikzMSFgw-F-38">
          <mxGeometry width="107" height="114" as="geometry" />
        </mxCell>
        <mxCell id="cZO8qI_o07ikzMSFgw-F-40" value="" style="aspect=fixed;sketch=0;html=1;dashed=0;whitespace=wrap;fillColor=#2875E2;strokeColor=#ffffff;points=[[0.005,0.63,0],[0.1,0.2,0],[0.9,0.2,0],[0.5,0,0],[0.995,0.63,0],[0.72,0.99,0],[0.5,1,0],[0.28,0.99,0]];shape=mxgraph.kubernetes.icon2;prIcon=pod" vertex="1" parent="cZO8qI_o07ikzMSFgw-F-38">
          <mxGeometry x="3" y="4" width="50" height="48" as="geometry" />
        </mxCell>
        <mxCell id="cZO8qI_o07ikzMSFgw-F-41" value="" style="aspect=fixed;sketch=0;html=1;dashed=0;whitespace=wrap;fillColor=#2875E2;strokeColor=#ffffff;points=[[0.005,0.63,0],[0.1,0.2,0],[0.9,0.2,0],[0.5,0,0],[0.995,0.63,0],[0.72,0.99,0],[0.5,1,0],[0.28,0.99,0]];shape=mxgraph.kubernetes.icon2;prIcon=pod" vertex="1" parent="cZO8qI_o07ikzMSFgw-F-38">
          <mxGeometry x="53" y="4" width="50" height="48" as="geometry" />
        </mxCell>
        <mxCell id="cZO8qI_o07ikzMSFgw-F-42" value="" style="aspect=fixed;sketch=0;html=1;dashed=0;whitespace=wrap;fillColor=#2875E2;strokeColor=#ffffff;points=[[0.005,0.63,0],[0.1,0.2,0],[0.9,0.2,0],[0.5,0,0],[0.995,0.63,0],[0.72,0.99,0],[0.5,1,0],[0.28,0.99,0]];shape=mxgraph.kubernetes.icon2;prIcon=pod" vertex="1" parent="cZO8qI_o07ikzMSFgw-F-38">
          <mxGeometry x="28" y="44" width="50" height="48" as="geometry" />
        </mxCell>
        <mxCell id="cZO8qI_o07ikzMSFgw-F-43" value="v1.0" style="text;html=1;strokeColor=none;fillColor=none;align=center;verticalAlign=middle;whiteSpace=wrap;rounded=0;" vertex="1" parent="cZO8qI_o07ikzMSFgw-F-38">
          <mxGeometry x="23" y="84" width="60" height="30" as="geometry" />
        </mxCell>
        <mxCell id="cZO8qI_o07ikzMSFgw-F-44" value="" style="rounded=1;whiteSpace=wrap;html=1;fillColor=none;dashed=1;" vertex="1" parent="cZO8qI_o07ikzMSFgw-F-38">
          <mxGeometry x="-8" y="-8" width="123.5" height="248" as="geometry" />
        </mxCell>
        <mxCell id="cZO8qI_o07ikzMSFgw-F-45" value="" style="group" vertex="1" connectable="0" parent="1">
          <mxGeometry x="373.75" y="470" width="107" height="114" as="geometry" />
        </mxCell>
        <mxCell id="cZO8qI_o07ikzMSFgw-F-46" value="" style="rounded=1;whiteSpace=wrap;html=1;fillColor=none;dashed=1;" vertex="1" parent="cZO8qI_o07ikzMSFgw-F-45">
          <mxGeometry width="107" height="114" as="geometry" />
        </mxCell>
        <mxCell id="cZO8qI_o07ikzMSFgw-F-47" value="" style="aspect=fixed;sketch=0;html=1;dashed=0;whitespace=wrap;fillColor=#29ff7b;strokeColor=#ffffff;points=[[0.005,0.63,0],[0.1,0.2,0],[0.9,0.2,0],[0.5,0,0],[0.995,0.63,0],[0.72,0.99,0],[0.5,1,0],[0.28,0.99,0]];shape=mxgraph.kubernetes.icon2;prIcon=pod" vertex="1" parent="cZO8qI_o07ikzMSFgw-F-45">
          <mxGeometry x="3" y="4" width="50" height="48" as="geometry" />
        </mxCell>
        <mxCell id="cZO8qI_o07ikzMSFgw-F-48" value="" style="aspect=fixed;sketch=0;html=1;dashed=0;whitespace=wrap;fillColor=#29ff7b;strokeColor=#ffffff;points=[[0.005,0.63,0],[0.1,0.2,0],[0.9,0.2,0],[0.5,0,0],[0.995,0.63,0],[0.72,0.99,0],[0.5,1,0],[0.28,0.99,0]];shape=mxgraph.kubernetes.icon2;prIcon=pod" vertex="1" parent="cZO8qI_o07ikzMSFgw-F-45">
          <mxGeometry x="53" y="4" width="50" height="48" as="geometry" />
        </mxCell>
        <mxCell id="cZO8qI_o07ikzMSFgw-F-49" value="" style="aspect=fixed;sketch=0;html=1;dashed=0;whitespace=wrap;fillColor=#29ff7b;strokeColor=#ffffff;points=[[0.005,0.63,0],[0.1,0.2,0],[0.9,0.2,0],[0.5,0,0],[0.995,0.63,0],[0.72,0.99,0],[0.5,1,0],[0.28,0.99,0]];shape=mxgraph.kubernetes.icon2;prIcon=pod" vertex="1" parent="cZO8qI_o07ikzMSFgw-F-45">
          <mxGeometry x="28" y="44" width="50" height="48" as="geometry" />
        </mxCell>
        <mxCell id="cZO8qI_o07ikzMSFgw-F-50" value="v2.0" style="text;html=1;strokeColor=none;fillColor=none;align=center;verticalAlign=middle;whiteSpace=wrap;rounded=0;" vertex="1" parent="cZO8qI_o07ikzMSFgw-F-45">
          <mxGeometry x="23" y="84" width="60" height="30" as="geometry" />
        </mxCell>
        <mxCell id="cZO8qI_o07ikzMSFgw-F-51" value="" style="group" vertex="1" connectable="0" parent="1">
          <mxGeometry x="513.75" y="350" width="107" height="114" as="geometry" />
        </mxCell>
        <mxCell id="cZO8qI_o07ikzMSFgw-F-52" value="" style="rounded=1;whiteSpace=wrap;html=1;fillColor=none;dashed=1;" vertex="1" parent="cZO8qI_o07ikzMSFgw-F-51">
          <mxGeometry width="107" height="114" as="geometry" />
        </mxCell>
        <mxCell id="cZO8qI_o07ikzMSFgw-F-53" value="" style="aspect=fixed;sketch=0;html=1;dashed=0;whitespace=wrap;fillColor=#29ff7b;strokeColor=#ffffff;points=[[0.005,0.63,0],[0.1,0.2,0],[0.9,0.2,0],[0.5,0,0],[0.995,0.63,0],[0.72,0.99,0],[0.5,1,0],[0.28,0.99,0]];shape=mxgraph.kubernetes.icon2;prIcon=pod" vertex="1" parent="cZO8qI_o07ikzMSFgw-F-51">
          <mxGeometry x="3" y="4" width="50" height="48" as="geometry" />
        </mxCell>
        <mxCell id="cZO8qI_o07ikzMSFgw-F-54" value="" style="aspect=fixed;sketch=0;html=1;dashed=0;whitespace=wrap;fillColor=#29ff7b;strokeColor=#ffffff;points=[[0.005,0.63,0],[0.1,0.2,0],[0.9,0.2,0],[0.5,0,0],[0.995,0.63,0],[0.72,0.99,0],[0.5,1,0],[0.28,0.99,0]];shape=mxgraph.kubernetes.icon2;prIcon=pod" vertex="1" parent="cZO8qI_o07ikzMSFgw-F-51">
          <mxGeometry x="53" y="4" width="50" height="48" as="geometry" />
        </mxCell>
        <mxCell id="cZO8qI_o07ikzMSFgw-F-55" value="" style="aspect=fixed;sketch=0;html=1;dashed=0;whitespace=wrap;fillColor=#29ff7b;strokeColor=#ffffff;points=[[0.005,0.63,0],[0.1,0.2,0],[0.9,0.2,0],[0.5,0,0],[0.995,0.63,0],[0.72,0.99,0],[0.5,1,0],[0.28,0.99,0]];shape=mxgraph.kubernetes.icon2;prIcon=pod" vertex="1" parent="cZO8qI_o07ikzMSFgw-F-51">
          <mxGeometry x="28" y="44" width="50" height="48" as="geometry" />
        </mxCell>
        <mxCell id="cZO8qI_o07ikzMSFgw-F-56" value="v2.0" style="text;html=1;strokeColor=none;fillColor=none;align=center;verticalAlign=middle;whiteSpace=wrap;rounded=0;" vertex="1" parent="cZO8qI_o07ikzMSFgw-F-51">
          <mxGeometry x="23" y="84" width="60" height="30" as="geometry" />
        </mxCell>
        <mxCell id="cZO8qI_o07ikzMSFgw-F-57" value="" style="rounded=1;whiteSpace=wrap;html=1;fillColor=none;dashed=1;" vertex="1" parent="1">
          <mxGeometry x="513.75" y="470" width="107" height="114" as="geometry" />
        </mxCell>
        <mxCell id="cZO8qI_o07ikzMSFgw-F-58" value="" style="aspect=fixed;sketch=0;html=1;dashed=0;whitespace=wrap;fillColor=#2875E2;strokeColor=#ffffff;points=[[0.005,0.63,0],[0.1,0.2,0],[0.9,0.2,0],[0.5,0,0],[0.995,0.63,0],[0.72,0.99,0],[0.5,1,0],[0.28,0.99,0]];shape=mxgraph.kubernetes.icon2;prIcon=pod" vertex="1" parent="1">
          <mxGeometry x="516.75" y="474" width="50" height="48" as="geometry" />
        </mxCell>
        <mxCell id="cZO8qI_o07ikzMSFgw-F-59" value="" style="aspect=fixed;sketch=0;html=1;dashed=0;whitespace=wrap;fillColor=#2875E2;strokeColor=#ffffff;points=[[0.005,0.63,0],[0.1,0.2,0],[0.9,0.2,0],[0.5,0,0],[0.995,0.63,0],[0.72,0.99,0],[0.5,1,0],[0.28,0.99,0]];shape=mxgraph.kubernetes.icon2;prIcon=pod" vertex="1" parent="1">
          <mxGeometry x="566.75" y="474" width="50" height="48" as="geometry" />
        </mxCell>
        <mxCell id="cZO8qI_o07ikzMSFgw-F-60" value="" style="aspect=fixed;sketch=0;html=1;dashed=0;whitespace=wrap;fillColor=#2875E2;strokeColor=#ffffff;points=[[0.005,0.63,0],[0.1,0.2,0],[0.9,0.2,0],[0.5,0,0],[0.995,0.63,0],[0.72,0.99,0],[0.5,1,0],[0.28,0.99,0]];shape=mxgraph.kubernetes.icon2;prIcon=pod" vertex="1" parent="1">
          <mxGeometry x="541.75" y="514" width="50" height="48" as="geometry" />
        </mxCell>
        <mxCell id="cZO8qI_o07ikzMSFgw-F-61" value="v1.0" style="text;html=1;strokeColor=none;fillColor=none;align=center;verticalAlign=middle;whiteSpace=wrap;rounded=0;" vertex="1" parent="1">
          <mxGeometry x="536.75" y="554" width="60" height="30" as="geometry" />
        </mxCell>
        <mxCell id="cZO8qI_o07ikzMSFgw-F-62" value="" style="rounded=1;whiteSpace=wrap;html=1;fillColor=none;dashed=1;" vertex="1" parent="1">
          <mxGeometry x="505.5" y="342" width="123.5" height="248" as="geometry" />
        </mxCell>
        <mxCell id="cZO8qI_o07ikzMSFgw-F-63" value="" style="endArrow=classic;html=1;rounded=0;exitX=0.5;exitY=1;exitDx=0;exitDy=0;exitPerimeter=0;entryX=0.5;entryY=0;entryDx=0;entryDy=0;entryPerimeter=0;" edge="1" parent="1" source="cZO8qI_o07ikzMSFgw-F-36" target="cZO8qI_o07ikzMSFgw-F-35">
          <mxGeometry width="50" height="50" relative="1" as="geometry">
            <mxPoint x="513.75" y="340" as="sourcePoint" />
            <mxPoint x="563.75" y="290" as="targetPoint" />
          </mxGeometry>
        </mxCell>
        <mxCell id="cZO8qI_o07ikzMSFgw-F-64" value="" style="endArrow=classic;html=1;rounded=0;exitX=0.28;exitY=0.99;exitDx=0;exitDy=0;exitPerimeter=0;entryX=0.5;entryY=0;entryDx=0;entryDy=0;" edge="1" parent="1" source="cZO8qI_o07ikzMSFgw-F-35" target="cZO8qI_o07ikzMSFgw-F-44">
          <mxGeometry width="50" height="50" relative="1" as="geometry">
            <mxPoint x="500.75" y="216" as="sourcePoint" />
            <mxPoint x="500.75" y="270" as="targetPoint" />
          </mxGeometry>
        </mxCell>
        <mxCell id="cZO8qI_o07ikzMSFgw-F-135" value="before" style="edgeLabel;html=1;align=center;verticalAlign=middle;resizable=0;points=[];" vertex="1" connectable="0" parent="cZO8qI_o07ikzMSFgw-F-64">
          <mxGeometry x="-0.2461" y="-2" relative="1" as="geometry">
            <mxPoint as="offset" />
          </mxGeometry>
        </mxCell>
        <mxCell id="cZO8qI_o07ikzMSFgw-F-65" value="" style="endArrow=classic;html=1;rounded=0;exitX=0.72;exitY=0.99;exitDx=0;exitDy=0;exitPerimeter=0;entryX=0.5;entryY=0;entryDx=0;entryDy=0;" edge="1" parent="1" source="cZO8qI_o07ikzMSFgw-F-35" target="cZO8qI_o07ikzMSFgw-F-62">
          <mxGeometry width="50" height="50" relative="1" as="geometry">
            <mxPoint x="489.75" y="318" as="sourcePoint" />
            <mxPoint x="437.75" y="352" as="targetPoint" />
          </mxGeometry>
        </mxCell>
        <mxCell id="cZO8qI_o07ikzMSFgw-F-136" value="after" style="edgeLabel;html=1;align=center;verticalAlign=middle;resizable=0;points=[];" vertex="1" connectable="0" parent="cZO8qI_o07ikzMSFgw-F-65">
          <mxGeometry x="-0.493" y="1" relative="1" as="geometry">
            <mxPoint x="11" y="4" as="offset" />
          </mxGeometry>
        </mxCell>
        <mxCell id="cZO8qI_o07ikzMSFgw-F-66" value="Blue-Green Deployment" style="text;html=1;strokeColor=none;fillColor=none;align=center;verticalAlign=middle;whiteSpace=wrap;rounded=0;fontSize=19;fontStyle=1" vertex="1" parent="1">
          <mxGeometry x="368.75" y="80" width="248" height="40" as="geometry" />
        </mxCell>
        <mxCell id="cZO8qI_o07ikzMSFgw-F-6" value="" style="rounded=1;whiteSpace=wrap;html=1;fillColor=none;dashed=1;" vertex="1" parent="1">
          <mxGeometry x="68" y="350" width="107" height="114" as="geometry" />
        </mxCell>
        <mxCell id="cZO8qI_o07ikzMSFgw-F-7" value="" style="aspect=fixed;sketch=0;html=1;dashed=0;whitespace=wrap;fillColor=#2875E2;strokeColor=#ffffff;points=[[0.005,0.63,0],[0.1,0.2,0],[0.9,0.2,0],[0.5,0,0],[0.995,0.63,0],[0.72,0.99,0],[0.5,1,0],[0.28,0.99,0]];shape=mxgraph.kubernetes.icon2;prIcon=pod" vertex="1" parent="1">
          <mxGeometry x="71" y="354" width="50" height="48" as="geometry" />
        </mxCell>
        <mxCell id="cZO8qI_o07ikzMSFgw-F-8" value="" style="aspect=fixed;sketch=0;html=1;dashed=0;whitespace=wrap;fillColor=#2875E2;strokeColor=#ffffff;points=[[0.005,0.63,0],[0.1,0.2,0],[0.9,0.2,0],[0.5,0,0],[0.995,0.63,0],[0.72,0.99,0],[0.5,1,0],[0.28,0.99,0]];shape=mxgraph.kubernetes.icon2;prIcon=pod" vertex="1" parent="1">
          <mxGeometry x="121" y="354" width="50" height="48" as="geometry" />
        </mxCell>
        <mxCell id="cZO8qI_o07ikzMSFgw-F-9" value="" style="aspect=fixed;sketch=0;html=1;dashed=0;whitespace=wrap;fillColor=#2875E2;strokeColor=#ffffff;points=[[0.005,0.63,0],[0.1,0.2,0],[0.9,0.2,0],[0.5,0,0],[0.995,0.63,0],[0.72,0.99,0],[0.5,1,0],[0.28,0.99,0]];shape=mxgraph.kubernetes.icon2;prIcon=pod" vertex="1" parent="1">
          <mxGeometry x="96" y="394" width="50" height="48" as="geometry" />
        </mxCell>
        <mxCell id="cZO8qI_o07ikzMSFgw-F-10" value="v1.0" style="text;html=1;strokeColor=none;fillColor=none;align=center;verticalAlign=middle;whiteSpace=wrap;rounded=0;" vertex="1" parent="1">
          <mxGeometry x="91" y="434" width="60" height="30" as="geometry" />
        </mxCell>
        <mxCell id="cZO8qI_o07ikzMSFgw-F-11" value="" style="rounded=1;whiteSpace=wrap;html=1;fillColor=none;dashed=1;" vertex="1" parent="1">
          <mxGeometry x="60" y="342" width="123.5" height="128" as="geometry" />
        </mxCell>
        <mxCell id="cZO8qI_o07ikzMSFgw-F-67" value="" style="aspect=fixed;sketch=0;html=1;dashed=0;whitespace=wrap;fillColor=#2875E2;strokeColor=#ffffff;points=[[0.005,0.63,0],[0.1,0.2,0],[0.9,0.2,0],[0.5,0,0],[0.995,0.63,0],[0.72,0.99,0],[0.5,1,0],[0.28,0.99,0]];shape=mxgraph.kubernetes.icon2;prIcon=user" vertex="1" parent="1">
          <mxGeometry x="111" y="690" width="50" height="48" as="geometry" />
        </mxCell>
        <mxCell id="cZO8qI_o07ikzMSFgw-F-68" value="" style="aspect=fixed;sketch=0;html=1;dashed=0;whitespace=wrap;fillColor=#2875E2;strokeColor=#ffffff;points=[[0.005,0.63,0],[0.1,0.2,0],[0.9,0.2,0],[0.5,0,0],[0.995,0.63,0],[0.72,0.99,0],[0.5,1,0],[0.28,0.99,0]];shape=mxgraph.kubernetes.icon2;prIcon=svc" vertex="1" parent="1">
          <mxGeometry x="120" y="820" width="50" height="48" as="geometry" />
        </mxCell>
        <mxCell id="cZO8qI_o07ikzMSFgw-F-69" value="" style="aspect=fixed;sketch=0;html=1;dashed=0;whitespace=wrap;fillColor=#2875E2;strokeColor=#ffffff;points=[[0.005,0.63,0],[0.1,0.2,0],[0.9,0.2,0],[0.5,0,0],[0.995,0.63,0],[0.72,0.99,0],[0.5,1,0],[0.28,0.99,0]];shape=mxgraph.kubernetes.icon2;prIcon=user" vertex="1" parent="1">
          <mxGeometry x="120" y="718" width="50" height="48" as="geometry" />
        </mxCell>
        <mxCell id="cZO8qI_o07ikzMSFgw-F-70" value="" style="aspect=fixed;sketch=0;html=1;dashed=0;whitespace=wrap;fillColor=#2875E2;strokeColor=#ffffff;points=[[0.005,0.63,0],[0.1,0.2,0],[0.9,0.2,0],[0.5,0,0],[0.995,0.63,0],[0.72,0.99,0],[0.5,1,0],[0.28,0.99,0]];shape=mxgraph.kubernetes.icon2;prIcon=user" vertex="1" parent="1">
          <mxGeometry x="149" y="702" width="50" height="48" as="geometry" />
        </mxCell>
        <mxCell id="cZO8qI_o07ikzMSFgw-F-77" value="" style="rounded=1;whiteSpace=wrap;html=1;fillColor=none;dashed=1;arcSize=7;" vertex="1" parent="1">
          <mxGeometry x="163" y="902" width="277" height="237" as="geometry" />
        </mxCell>
        <mxCell id="cZO8qI_o07ikzMSFgw-F-78" value="" style="endArrow=classic;html=1;rounded=0;exitX=0.5;exitY=1;exitDx=0;exitDy=0;exitPerimeter=0;entryX=0.5;entryY=0;entryDx=0;entryDy=0;entryPerimeter=0;" edge="1" parent="1" source="cZO8qI_o07ikzMSFgw-F-69" target="cZO8qI_o07ikzMSFgw-F-68">
          <mxGeometry width="50" height="50" relative="1" as="geometry">
            <mxPoint x="168" y="900" as="sourcePoint" />
            <mxPoint x="218" y="850" as="targetPoint" />
          </mxGeometry>
        </mxCell>
        <mxCell id="cZO8qI_o07ikzMSFgw-F-79" value="" style="endArrow=classic;html=1;rounded=0;exitX=0.28;exitY=0.99;exitDx=0;exitDy=0;exitPerimeter=0;entryX=0.5;entryY=0;entryDx=0;entryDy=0;" edge="1" parent="1" source="cZO8qI_o07ikzMSFgw-F-68" target="cZO8qI_o07ikzMSFgw-F-87">
          <mxGeometry width="50" height="50" relative="1" as="geometry">
            <mxPoint x="155" y="776" as="sourcePoint" />
            <mxPoint x="155" y="830" as="targetPoint" />
          </mxGeometry>
        </mxCell>
        <mxCell id="cZO8qI_o07ikzMSFgw-F-80" value="" style="endArrow=classic;html=1;rounded=0;exitX=0.72;exitY=0.99;exitDx=0;exitDy=0;exitPerimeter=0;entryX=0.5;entryY=0;entryDx=0;entryDy=0;" edge="1" parent="1" source="cZO8qI_o07ikzMSFgw-F-68" target="cZO8qI_o07ikzMSFgw-F-77">
          <mxGeometry width="50" height="50" relative="1" as="geometry">
            <mxPoint x="144" y="878" as="sourcePoint" />
            <mxPoint x="92" y="912" as="targetPoint" />
          </mxGeometry>
        </mxCell>
        <mxCell id="cZO8qI_o07ikzMSFgw-F-81" value="Rolling Deployment" style="text;html=1;strokeColor=none;fillColor=none;align=center;verticalAlign=middle;whiteSpace=wrap;rounded=0;fontSize=19;fontStyle=1" vertex="1" parent="1">
          <mxGeometry x="23" y="640" width="248" height="40" as="geometry" />
        </mxCell>
        <mxCell id="cZO8qI_o07ikzMSFgw-F-82" value="" style="rounded=1;whiteSpace=wrap;html=1;fillColor=none;dashed=1;" vertex="1" parent="1">
          <mxGeometry x="28" y="910" width="107" height="114" as="geometry" />
        </mxCell>
        <mxCell id="cZO8qI_o07ikzMSFgw-F-83" value="" style="aspect=fixed;sketch=0;html=1;dashed=0;whitespace=wrap;fillColor=#2875E2;strokeColor=#ffffff;points=[[0.005,0.63,0],[0.1,0.2,0],[0.9,0.2,0],[0.5,0,0],[0.995,0.63,0],[0.72,0.99,0],[0.5,1,0],[0.28,0.99,0]];shape=mxgraph.kubernetes.icon2;prIcon=pod" vertex="1" parent="1">
          <mxGeometry x="31" y="914" width="50" height="48" as="geometry" />
        </mxCell>
        <mxCell id="cZO8qI_o07ikzMSFgw-F-84" value="" style="aspect=fixed;sketch=0;html=1;dashed=0;whitespace=wrap;fillColor=#2875E2;strokeColor=#ffffff;points=[[0.005,0.63,0],[0.1,0.2,0],[0.9,0.2,0],[0.5,0,0],[0.995,0.63,0],[0.72,0.99,0],[0.5,1,0],[0.28,0.99,0]];shape=mxgraph.kubernetes.icon2;prIcon=pod" vertex="1" parent="1">
          <mxGeometry x="81" y="914" width="50" height="48" as="geometry" />
        </mxCell>
        <mxCell id="cZO8qI_o07ikzMSFgw-F-85" value="" style="aspect=fixed;sketch=0;html=1;dashed=0;whitespace=wrap;fillColor=#2875E2;strokeColor=#ffffff;points=[[0.005,0.63,0],[0.1,0.2,0],[0.9,0.2,0],[0.5,0,0],[0.995,0.63,0],[0.72,0.99,0],[0.5,1,0],[0.28,0.99,0]];shape=mxgraph.kubernetes.icon2;prIcon=pod" vertex="1" parent="1">
          <mxGeometry x="56" y="954" width="50" height="48" as="geometry" />
        </mxCell>
        <mxCell id="cZO8qI_o07ikzMSFgw-F-86" value="v1.0" style="text;html=1;strokeColor=none;fillColor=none;align=center;verticalAlign=middle;whiteSpace=wrap;rounded=0;" vertex="1" parent="1">
          <mxGeometry x="51" y="994" width="60" height="30" as="geometry" />
        </mxCell>
        <mxCell id="cZO8qI_o07ikzMSFgw-F-87" value="" style="rounded=1;whiteSpace=wrap;html=1;fillColor=none;dashed=1;" vertex="1" parent="1">
          <mxGeometry x="20" y="902" width="123.5" height="128" as="geometry" />
        </mxCell>
        <mxCell id="cZO8qI_o07ikzMSFgw-F-138" style="edgeStyle=orthogonalEdgeStyle;rounded=0;orthogonalLoop=1;jettySize=auto;html=1;exitX=1;exitY=0.5;exitDx=0;exitDy=0;entryX=0;entryY=0.5;entryDx=0;entryDy=0;" edge="1" parent="1" source="cZO8qI_o07ikzMSFgw-F-89" target="cZO8qI_o07ikzMSFgw-F-95">
          <mxGeometry relative="1" as="geometry" />
        </mxCell>
        <mxCell id="cZO8qI_o07ikzMSFgw-F-89" value="" style="rounded=1;whiteSpace=wrap;html=1;fillColor=none;dashed=1;" vertex="1" parent="1">
          <mxGeometry x="167" y="909" width="107" height="100" as="geometry" />
        </mxCell>
        <mxCell id="cZO8qI_o07ikzMSFgw-F-90" value="" style="aspect=fixed;sketch=0;html=1;dashed=0;whitespace=wrap;fillColor=#29ff7b;strokeColor=#ffffff;points=[[0.005,0.63,0],[0.1,0.2,0],[0.9,0.2,0],[0.5,0,0],[0.995,0.63,0],[0.72,0.99,0],[0.5,1,0],[0.28,0.99,0]];shape=mxgraph.kubernetes.icon2;prIcon=pod" vertex="1" parent="1">
          <mxGeometry x="170" y="913" width="50" height="48" as="geometry" />
        </mxCell>
        <mxCell id="cZO8qI_o07ikzMSFgw-F-91" value="" style="aspect=fixed;sketch=0;html=1;dashed=0;whitespace=wrap;fillColor=#2875E2;strokeColor=#ffffff;points=[[0.005,0.63,0],[0.1,0.2,0],[0.9,0.2,0],[0.5,0,0],[0.995,0.63,0],[0.72,0.99,0],[0.5,1,0],[0.28,0.99,0]];shape=mxgraph.kubernetes.icon2;prIcon=pod" vertex="1" parent="1">
          <mxGeometry x="220" y="913" width="50" height="48" as="geometry" />
        </mxCell>
        <mxCell id="cZO8qI_o07ikzMSFgw-F-92" value="" style="aspect=fixed;sketch=0;html=1;dashed=0;whitespace=wrap;fillColor=#2875E2;strokeColor=#ffffff;points=[[0.005,0.63,0],[0.1,0.2,0],[0.9,0.2,0],[0.5,0,0],[0.995,0.63,0],[0.72,0.99,0],[0.5,1,0],[0.28,0.99,0]];shape=mxgraph.kubernetes.icon2;prIcon=pod" vertex="1" parent="1">
          <mxGeometry x="195" y="953" width="50" height="48" as="geometry" />
        </mxCell>
        <mxCell id="cZO8qI_o07ikzMSFgw-F-95" value="" style="rounded=1;whiteSpace=wrap;html=1;fillColor=none;dashed=1;" vertex="1" parent="1">
          <mxGeometry x="310" y="910" width="107" height="100" as="geometry" />
        </mxCell>
        <mxCell id="cZO8qI_o07ikzMSFgw-F-96" value="" style="aspect=fixed;sketch=0;html=1;dashed=0;whitespace=wrap;fillColor=#29ff7b;strokeColor=#ffffff;points=[[0.005,0.63,0],[0.1,0.2,0],[0.9,0.2,0],[0.5,0,0],[0.995,0.63,0],[0.72,0.99,0],[0.5,1,0],[0.28,0.99,0]];shape=mxgraph.kubernetes.icon2;prIcon=pod" vertex="1" parent="1">
          <mxGeometry x="313" y="914" width="50" height="48" as="geometry" />
        </mxCell>
        <mxCell id="cZO8qI_o07ikzMSFgw-F-97" value="" style="aspect=fixed;sketch=0;html=1;dashed=0;whitespace=wrap;fillColor=#29FF7B;strokeColor=#ffffff;points=[[0.005,0.63,0],[0.1,0.2,0],[0.9,0.2,0],[0.5,0,0],[0.995,0.63,0],[0.72,0.99,0],[0.5,1,0],[0.28,0.99,0]];shape=mxgraph.kubernetes.icon2;prIcon=pod" vertex="1" parent="1">
          <mxGeometry x="363" y="914" width="50" height="48" as="geometry" />
        </mxCell>
        <mxCell id="cZO8qI_o07ikzMSFgw-F-98" value="" style="aspect=fixed;sketch=0;html=1;dashed=0;whitespace=wrap;fillColor=#2875E2;strokeColor=#ffffff;points=[[0.005,0.63,0],[0.1,0.2,0],[0.9,0.2,0],[0.5,0,0],[0.995,0.63,0],[0.72,0.99,0],[0.5,1,0],[0.28,0.99,0]];shape=mxgraph.kubernetes.icon2;prIcon=pod" vertex="1" parent="1">
          <mxGeometry x="338" y="954" width="50" height="48" as="geometry" />
        </mxCell>
        <mxCell id="cZO8qI_o07ikzMSFgw-F-103" value="" style="rounded=1;whiteSpace=wrap;html=1;fillColor=none;dashed=1;" vertex="1" parent="1">
          <mxGeometry x="226" y="1019" width="107" height="114" as="geometry" />
        </mxCell>
        <mxCell id="cZO8qI_o07ikzMSFgw-F-104" value="" style="aspect=fixed;sketch=0;html=1;dashed=0;whitespace=wrap;fillColor=#29ff7b;strokeColor=#ffffff;points=[[0.005,0.63,0],[0.1,0.2,0],[0.9,0.2,0],[0.5,0,0],[0.995,0.63,0],[0.72,0.99,0],[0.5,1,0],[0.28,0.99,0]];shape=mxgraph.kubernetes.icon2;prIcon=pod" vertex="1" parent="1">
          <mxGeometry x="229" y="1023" width="50" height="48" as="geometry" />
        </mxCell>
        <mxCell id="cZO8qI_o07ikzMSFgw-F-105" value="" style="aspect=fixed;sketch=0;html=1;dashed=0;whitespace=wrap;fillColor=#29ff7b;strokeColor=#ffffff;points=[[0.005,0.63,0],[0.1,0.2,0],[0.9,0.2,0],[0.5,0,0],[0.995,0.63,0],[0.72,0.99,0],[0.5,1,0],[0.28,0.99,0]];shape=mxgraph.kubernetes.icon2;prIcon=pod" vertex="1" parent="1">
          <mxGeometry x="279" y="1023" width="50" height="48" as="geometry" />
        </mxCell>
        <mxCell id="cZO8qI_o07ikzMSFgw-F-106" value="" style="aspect=fixed;sketch=0;html=1;dashed=0;whitespace=wrap;fillColor=#29ff7b;strokeColor=#ffffff;points=[[0.005,0.63,0],[0.1,0.2,0],[0.9,0.2,0],[0.5,0,0],[0.995,0.63,0],[0.72,0.99,0],[0.5,1,0],[0.28,0.99,0]];shape=mxgraph.kubernetes.icon2;prIcon=pod" vertex="1" parent="1">
          <mxGeometry x="254" y="1063" width="50" height="48" as="geometry" />
        </mxCell>
        <mxCell id="cZO8qI_o07ikzMSFgw-F-107" value="v2.0" style="text;html=1;strokeColor=none;fillColor=none;align=center;verticalAlign=middle;whiteSpace=wrap;rounded=0;" vertex="1" parent="1">
          <mxGeometry x="249" y="1103" width="60" height="30" as="geometry" />
        </mxCell>
        <mxCell id="cZO8qI_o07ikzMSFgw-F-108" value="" style="aspect=fixed;sketch=0;html=1;dashed=0;whitespace=wrap;fillColor=#2875E2;strokeColor=#ffffff;points=[[0.005,0.63,0],[0.1,0.2,0],[0.9,0.2,0],[0.5,0,0],[0.995,0.63,0],[0.72,0.99,0],[0.5,1,0],[0.28,0.99,0]];shape=mxgraph.kubernetes.icon2;prIcon=user" vertex="1" parent="1">
          <mxGeometry x="571.75" y="690" width="50" height="48" as="geometry" />
        </mxCell>
        <mxCell id="cZO8qI_o07ikzMSFgw-F-109" value="" style="aspect=fixed;sketch=0;html=1;dashed=0;whitespace=wrap;fillColor=#2875E2;strokeColor=#ffffff;points=[[0.005,0.63,0],[0.1,0.2,0],[0.9,0.2,0],[0.5,0,0],[0.995,0.63,0],[0.72,0.99,0],[0.5,1,0],[0.28,0.99,0]];shape=mxgraph.kubernetes.icon2;prIcon=svc" vertex="1" parent="1">
          <mxGeometry x="580.75" y="820" width="50" height="48" as="geometry" />
        </mxCell>
        <mxCell id="cZO8qI_o07ikzMSFgw-F-110" value="" style="aspect=fixed;sketch=0;html=1;dashed=0;whitespace=wrap;fillColor=#2875E2;strokeColor=#ffffff;points=[[0.005,0.63,0],[0.1,0.2,0],[0.9,0.2,0],[0.5,0,0],[0.995,0.63,0],[0.72,0.99,0],[0.5,1,0],[0.28,0.99,0]];shape=mxgraph.kubernetes.icon2;prIcon=user" vertex="1" parent="1">
          <mxGeometry x="580.75" y="718" width="50" height="48" as="geometry" />
        </mxCell>
        <mxCell id="cZO8qI_o07ikzMSFgw-F-111" value="" style="aspect=fixed;sketch=0;html=1;dashed=0;whitespace=wrap;fillColor=#2875E2;strokeColor=#ffffff;points=[[0.005,0.63,0],[0.1,0.2,0],[0.9,0.2,0],[0.5,0,0],[0.995,0.63,0],[0.72,0.99,0],[0.5,1,0],[0.28,0.99,0]];shape=mxgraph.kubernetes.icon2;prIcon=user" vertex="1" parent="1">
          <mxGeometry x="609.75" y="702" width="50" height="48" as="geometry" />
        </mxCell>
        <mxCell id="cZO8qI_o07ikzMSFgw-F-119" value="" style="endArrow=classic;html=1;rounded=0;exitX=0.5;exitY=1;exitDx=0;exitDy=0;exitPerimeter=0;entryX=0.5;entryY=0;entryDx=0;entryDy=0;entryPerimeter=0;" edge="1" parent="1" source="cZO8qI_o07ikzMSFgw-F-110" target="cZO8qI_o07ikzMSFgw-F-109">
          <mxGeometry width="50" height="50" relative="1" as="geometry">
            <mxPoint x="628.75" y="900" as="sourcePoint" />
            <mxPoint x="678.75" y="850" as="targetPoint" />
          </mxGeometry>
        </mxCell>
        <mxCell id="cZO8qI_o07ikzMSFgw-F-120" value="" style="endArrow=classic;html=1;rounded=0;exitX=0.28;exitY=0.99;exitDx=0;exitDy=0;exitPerimeter=0;entryX=0.5;entryY=0;entryDx=0;entryDy=0;" edge="1" parent="1" source="cZO8qI_o07ikzMSFgw-F-109" target="cZO8qI_o07ikzMSFgw-F-128">
          <mxGeometry width="50" height="50" relative="1" as="geometry">
            <mxPoint x="615.75" y="776" as="sourcePoint" />
            <mxPoint x="615.75" y="830" as="targetPoint" />
          </mxGeometry>
        </mxCell>
        <mxCell id="cZO8qI_o07ikzMSFgw-F-122" value="Canary Deployment" style="text;html=1;strokeColor=none;fillColor=none;align=center;verticalAlign=middle;whiteSpace=wrap;rounded=0;fontSize=19;fontStyle=1" vertex="1" parent="1">
          <mxGeometry x="483.75" y="640" width="248" height="40" as="geometry" />
        </mxCell>
        <mxCell id="cZO8qI_o07ikzMSFgw-F-123" value="" style="rounded=1;whiteSpace=wrap;html=1;fillColor=none;dashed=1;" vertex="1" parent="1">
          <mxGeometry x="488.75" y="910" width="107" height="114" as="geometry" />
        </mxCell>
        <mxCell id="cZO8qI_o07ikzMSFgw-F-124" value="" style="aspect=fixed;sketch=0;html=1;dashed=0;whitespace=wrap;fillColor=#2875E2;strokeColor=#ffffff;points=[[0.005,0.63,0],[0.1,0.2,0],[0.9,0.2,0],[0.5,0,0],[0.995,0.63,0],[0.72,0.99,0],[0.5,1,0],[0.28,0.99,0]];shape=mxgraph.kubernetes.icon2;prIcon=pod" vertex="1" parent="1">
          <mxGeometry x="491.75" y="914" width="50" height="48" as="geometry" />
        </mxCell>
        <mxCell id="cZO8qI_o07ikzMSFgw-F-125" value="" style="aspect=fixed;sketch=0;html=1;dashed=0;whitespace=wrap;fillColor=#2875E2;strokeColor=#ffffff;points=[[0.005,0.63,0],[0.1,0.2,0],[0.9,0.2,0],[0.5,0,0],[0.995,0.63,0],[0.72,0.99,0],[0.5,1,0],[0.28,0.99,0]];shape=mxgraph.kubernetes.icon2;prIcon=pod" vertex="1" parent="1">
          <mxGeometry x="541.75" y="914" width="50" height="48" as="geometry" />
        </mxCell>
        <mxCell id="cZO8qI_o07ikzMSFgw-F-126" value="" style="aspect=fixed;sketch=0;html=1;dashed=0;whitespace=wrap;fillColor=#2875E2;strokeColor=#ffffff;points=[[0.005,0.63,0],[0.1,0.2,0],[0.9,0.2,0],[0.5,0,0],[0.995,0.63,0],[0.72,0.99,0],[0.5,1,0],[0.28,0.99,0]];shape=mxgraph.kubernetes.icon2;prIcon=pod" vertex="1" parent="1">
          <mxGeometry x="516.75" y="954" width="50" height="48" as="geometry" />
        </mxCell>
        <mxCell id="cZO8qI_o07ikzMSFgw-F-127" value="v1.0" style="text;html=1;strokeColor=none;fillColor=none;align=center;verticalAlign=middle;whiteSpace=wrap;rounded=0;" vertex="1" parent="1">
          <mxGeometry x="511.75" y="994" width="60" height="30" as="geometry" />
        </mxCell>
        <mxCell id="cZO8qI_o07ikzMSFgw-F-128" value="" style="rounded=1;whiteSpace=wrap;html=1;fillColor=none;dashed=1;" vertex="1" parent="1">
          <mxGeometry x="480.75" y="902" width="123.5" height="128" as="geometry" />
        </mxCell>
        <mxCell id="cZO8qI_o07ikzMSFgw-F-113" value="" style="rounded=1;whiteSpace=wrap;html=1;fillColor=none;dashed=1;arcSize=9;" vertex="1" parent="1">
          <mxGeometry x="628.75" y="910" width="131" height="140" as="geometry" />
        </mxCell>
        <mxCell id="cZO8qI_o07ikzMSFgw-F-114" value="" style="aspect=fixed;sketch=0;html=1;dashed=0;whitespace=wrap;fillColor=#29ff7b;strokeColor=#ffffff;points=[[0.005,0.63,0],[0.1,0.2,0],[0.9,0.2,0],[0.5,0,0],[0.995,0.63,0],[0.72,0.99,0],[0.5,1,0],[0.28,0.99,0]];shape=mxgraph.kubernetes.icon2;prIcon=pod" vertex="1" parent="1">
          <mxGeometry x="631.75" y="914" width="50" height="48" as="geometry" />
        </mxCell>
        <mxCell id="cZO8qI_o07ikzMSFgw-F-115" value="" style="aspect=fixed;sketch=0;html=1;dashed=0;whitespace=wrap;fillColor=#2875E2;strokeColor=#ffffff;points=[[0.005,0.63,0],[0.1,0.2,0],[0.9,0.2,0],[0.5,0,0],[0.995,0.63,0],[0.72,0.99,0],[0.5,1,0],[0.28,0.99,0]];shape=mxgraph.kubernetes.icon2;prIcon=pod" vertex="1" parent="1">
          <mxGeometry x="693.75" y="914" width="50" height="48" as="geometry" />
        </mxCell>
        <mxCell id="cZO8qI_o07ikzMSFgw-F-116" value="" style="aspect=fixed;sketch=0;html=1;dashed=0;whitespace=wrap;fillColor=#2875E2;strokeColor=#ffffff;points=[[0.005,0.63,0],[0.1,0.2,0],[0.9,0.2,0],[0.5,0,0],[0.995,0.63,0],[0.72,0.99,0],[0.5,1,0],[0.28,0.99,0]];shape=mxgraph.kubernetes.icon2;prIcon=pod" vertex="1" parent="1">
          <mxGeometry x="693.75" y="962" width="50" height="48" as="geometry" />
        </mxCell>
        <mxCell id="cZO8qI_o07ikzMSFgw-F-117" value="v2.0" style="text;html=1;strokeColor=none;fillColor=none;align=center;verticalAlign=middle;whiteSpace=wrap;rounded=0;" vertex="1" parent="1">
          <mxGeometry x="623.75" y="954" width="60" height="30" as="geometry" />
        </mxCell>
        <mxCell id="cZO8qI_o07ikzMSFgw-F-129" value="v2.0" style="text;html=1;strokeColor=none;fillColor=none;align=center;verticalAlign=middle;whiteSpace=wrap;rounded=0;" vertex="1" parent="1">
          <mxGeometry x="683.75" y="1010" width="60" height="30" as="geometry" />
        </mxCell>
        <mxCell id="cZO8qI_o07ikzMSFgw-F-130" value="" style="rounded=1;whiteSpace=wrap;html=1;fillColor=none;dashed=1;" vertex="1" parent="1">
          <mxGeometry x="683.75" y="914" width="70" height="126" as="geometry" />
        </mxCell>
        <mxCell id="cZO8qI_o07ikzMSFgw-F-131" value="" style="endArrow=classic;html=1;rounded=0;exitX=0.72;exitY=0.99;exitDx=0;exitDy=0;exitPerimeter=0;entryX=0.1;entryY=0.2;entryDx=0;entryDy=0;entryPerimeter=0;" edge="1" parent="1" source="cZO8qI_o07ikzMSFgw-F-109" target="cZO8qI_o07ikzMSFgw-F-114">
          <mxGeometry width="50" height="50" relative="1" as="geometry">
            <mxPoint x="679.75" y="900" as="sourcePoint" />
            <mxPoint x="729.75" y="850" as="targetPoint" />
          </mxGeometry>
        </mxCell>
        <mxCell id="cZO8qI_o07ikzMSFgw-F-133" value="some users" style="edgeLabel;html=1;align=center;verticalAlign=middle;resizable=0;points=[];" vertex="1" connectable="0" parent="cZO8qI_o07ikzMSFgw-F-131">
          <mxGeometry x="-0.1507" y="-1" relative="1" as="geometry">
            <mxPoint as="offset" />
          </mxGeometry>
        </mxCell>
        <mxCell id="cZO8qI_o07ikzMSFgw-F-132" value="" style="endArrow=classic;html=1;rounded=0;entryX=0.5;entryY=0;entryDx=0;entryDy=0;exitX=0.72;exitY=0.99;exitDx=0;exitDy=0;exitPerimeter=0;" edge="1" parent="1" source="cZO8qI_o07ikzMSFgw-F-109" target="cZO8qI_o07ikzMSFgw-F-130">
          <mxGeometry width="50" height="50" relative="1" as="geometry">
            <mxPoint x="619.75" y="870" as="sourcePoint" />
            <mxPoint x="646.75" y="934" as="targetPoint" />
          </mxGeometry>
        </mxCell>
        <mxCell id="cZO8qI_o07ikzMSFgw-F-134" value="most users" style="edgeLabel;html=1;align=center;verticalAlign=middle;resizable=0;points=[];" vertex="1" connectable="0" parent="cZO8qI_o07ikzMSFgw-F-132">
          <mxGeometry x="0.1161" y="2" relative="1" as="geometry">
            <mxPoint x="19" y="6" as="offset" />
          </mxGeometry>
        </mxCell>
        <mxCell id="cZO8qI_o07ikzMSFgw-F-140" style="rounded=0;orthogonalLoop=1;jettySize=auto;html=1;exitX=0.5;exitY=1;exitDx=0;exitDy=0;entryX=1.008;entryY=0.186;entryDx=0;entryDy=0;entryPerimeter=0;" edge="1" parent="1" source="cZO8qI_o07ikzMSFgw-F-95" target="cZO8qI_o07ikzMSFgw-F-103">
          <mxGeometry relative="1" as="geometry" />
        </mxCell>
        <mxCell id="cZO8qI_o07ikzMSFgw-F-141" value="" style="aspect=fixed;sketch=0;html=1;dashed=0;whitespace=wrap;fillColor=#2875E2;strokeColor=#ffffff;points=[[0.005,0.63,0],[0.1,0.2,0],[0.9,0.2,0],[0.5,0,0],[0.995,0.63,0],[0.72,0.99,0],[0.5,1,0],[0.28,0.99,0]];shape=mxgraph.kubernetes.icon2;prIcon=user" vertex="1" parent="1">
          <mxGeometry x="918.75" y="690" width="50" height="48" as="geometry" />
        </mxCell>
        <mxCell id="cZO8qI_o07ikzMSFgw-F-142" value="" style="aspect=fixed;sketch=0;html=1;dashed=0;whitespace=wrap;fillColor=#2875E2;strokeColor=#ffffff;points=[[0.005,0.63,0],[0.1,0.2,0],[0.9,0.2,0],[0.5,0,0],[0.995,0.63,0],[0.72,0.99,0],[0.5,1,0],[0.28,0.99,0]];shape=mxgraph.kubernetes.icon2;prIcon=svc" vertex="1" parent="1">
          <mxGeometry x="927.75" y="820" width="50" height="48" as="geometry" />
        </mxCell>
        <mxCell id="cZO8qI_o07ikzMSFgw-F-143" value="" style="aspect=fixed;sketch=0;html=1;dashed=0;whitespace=wrap;fillColor=#29FF7B;strokeColor=#ffffff;points=[[0.005,0.63,0],[0.1,0.2,0],[0.9,0.2,0],[0.5,0,0],[0.995,0.63,0],[0.72,0.99,0],[0.5,1,0],[0.28,0.99,0]];shape=mxgraph.kubernetes.icon2;prIcon=user" vertex="1" parent="1">
          <mxGeometry x="929.83" y="720" width="45.83" height="44" as="geometry" />
        </mxCell>
        <mxCell id="cZO8qI_o07ikzMSFgw-F-144" value="" style="aspect=fixed;sketch=0;html=1;dashed=0;whitespace=wrap;fillColor=#29FF7B;strokeColor=#ffffff;points=[[0.005,0.63,0],[0.1,0.2,0],[0.9,0.2,0],[0.5,0,0],[0.995,0.63,0],[0.72,0.99,0],[0.5,1,0],[0.28,0.99,0]];shape=mxgraph.kubernetes.icon2;prIcon=user" vertex="1" parent="1">
          <mxGeometry x="956.75" y="702" width="50" height="48" as="geometry" />
        </mxCell>
        <mxCell id="cZO8qI_o07ikzMSFgw-F-145" value="" style="endArrow=classic;html=1;rounded=0;exitX=0.5;exitY=1;exitDx=0;exitDy=0;exitPerimeter=0;entryX=0.5;entryY=0;entryDx=0;entryDy=0;entryPerimeter=0;" edge="1" parent="1" source="cZO8qI_o07ikzMSFgw-F-143" target="cZO8qI_o07ikzMSFgw-F-142">
          <mxGeometry width="50" height="50" relative="1" as="geometry">
            <mxPoint x="975.75" y="900" as="sourcePoint" />
            <mxPoint x="1025.75" y="850" as="targetPoint" />
          </mxGeometry>
        </mxCell>
        <mxCell id="cZO8qI_o07ikzMSFgw-F-146" value="" style="endArrow=classic;html=1;rounded=0;exitX=0.28;exitY=0.99;exitDx=0;exitDy=0;exitPerimeter=0;entryX=0.25;entryY=0;entryDx=0;entryDy=0;edgeStyle=orthogonalEdgeStyle;curved=1;" edge="1" parent="1" source="cZO8qI_o07ikzMSFgw-F-142" target="cZO8qI_o07ikzMSFgw-F-148">
          <mxGeometry width="50" height="50" relative="1" as="geometry">
            <mxPoint x="962.75" y="776" as="sourcePoint" />
            <mxPoint x="889.5" y="902" as="targetPoint" />
            <Array as="points">
              <mxPoint x="913.75" y="868" />
              <mxPoint x="913.75" y="909" />
            </Array>
          </mxGeometry>
        </mxCell>
        <mxCell id="cZO8qI_o07ikzMSFgw-F-169" value="flag A" style="edgeLabel;html=1;align=center;verticalAlign=middle;resizable=0;points=[];" vertex="1" connectable="0" parent="cZO8qI_o07ikzMSFgw-F-146">
          <mxGeometry x="-0.7149" relative="1" as="geometry">
            <mxPoint x="-7" y="12" as="offset" />
          </mxGeometry>
        </mxCell>
        <mxCell id="cZO8qI_o07ikzMSFgw-F-147" value="Feature Toggle" style="text;html=1;strokeColor=none;fillColor=none;align=center;verticalAlign=middle;whiteSpace=wrap;rounded=0;fontSize=19;fontStyle=1" vertex="1" parent="1">
          <mxGeometry x="830.75" y="640" width="248" height="40" as="geometry" />
        </mxCell>
        <mxCell id="cZO8qI_o07ikzMSFgw-F-148" value="" style="rounded=1;whiteSpace=wrap;html=1;fillColor=none;dashed=1;" vertex="1" parent="1">
          <mxGeometry x="872.25" y="950" width="165" height="60" as="geometry" />
        </mxCell>
        <mxCell id="cZO8qI_o07ikzMSFgw-F-149" value="" style="aspect=fixed;sketch=0;html=1;dashed=0;whitespace=wrap;fillColor=#2875E2;strokeColor=#ffffff;points=[[0.005,0.63,0],[0.1,0.2,0],[0.9,0.2,0],[0.5,0,0],[0.995,0.63,0],[0.72,0.99,0],[0.5,1,0],[0.28,0.99,0]];shape=mxgraph.kubernetes.icon2;prIcon=pod" vertex="1" parent="1">
          <mxGeometry x="875.25" y="954" width="50" height="48" as="geometry" />
        </mxCell>
        <mxCell id="cZO8qI_o07ikzMSFgw-F-150" value="" style="aspect=fixed;sketch=0;html=1;dashed=0;whitespace=wrap;fillColor=#2875E2;strokeColor=#ffffff;points=[[0.005,0.63,0],[0.1,0.2,0],[0.9,0.2,0],[0.5,0,0],[0.995,0.63,0],[0.72,0.99,0],[0.5,1,0],[0.28,0.99,0]];shape=mxgraph.kubernetes.icon2;prIcon=pod" vertex="1" parent="1">
          <mxGeometry x="925.25" y="954" width="50" height="48" as="geometry" />
        </mxCell>
        <mxCell id="cZO8qI_o07ikzMSFgw-F-151" value="" style="aspect=fixed;sketch=0;html=1;dashed=0;whitespace=wrap;fillColor=#2875E2;strokeColor=#ffffff;points=[[0.005,0.63,0],[0.1,0.2,0],[0.9,0.2,0],[0.5,0,0],[0.995,0.63,0],[0.72,0.99,0],[0.5,1,0],[0.28,0.99,0]];shape=mxgraph.kubernetes.icon2;prIcon=pod" vertex="1" parent="1">
          <mxGeometry x="977.25" y="954" width="50" height="48" as="geometry" />
        </mxCell>
        <mxCell id="cZO8qI_o07ikzMSFgw-F-167" value="" style="endArrow=classic;html=1;rounded=0;exitX=0.72;exitY=0.99;exitDx=0;exitDy=0;exitPerimeter=0;entryX=0.75;entryY=0;entryDx=0;entryDy=0;edgeStyle=orthogonalEdgeStyle;curved=1;" edge="1" parent="1" source="cZO8qI_o07ikzMSFgw-F-142" target="cZO8qI_o07ikzMSFgw-F-148">
          <mxGeometry width="50" height="50" relative="1" as="geometry">
            <mxPoint x="951.75" y="878" as="sourcePoint" />
            <mxPoint x="899.5" y="912" as="targetPoint" />
            <Array as="points">
              <mxPoint x="1000.75" y="868" />
              <mxPoint x="1000.75" y="900" />
              <mxPoint x="995.75" y="900" />
            </Array>
          </mxGeometry>
        </mxCell>
        <mxCell id="cZO8qI_o07ikzMSFgw-F-170" value="flag B" style="edgeLabel;html=1;align=center;verticalAlign=middle;resizable=0;points=[];" vertex="1" connectable="0" parent="cZO8qI_o07ikzMSFgw-F-167">
          <mxGeometry x="-0.7692" relative="1" as="geometry">
            <mxPoint x="20" y="12" as="offset" />
          </mxGeometry>
        </mxCell>
        <mxCell id="cZO8qI_o07ikzMSFgw-F-166" value="" style="aspect=fixed;sketch=0;html=1;dashed=0;whitespace=wrap;fillColor=#29FF7B;strokeColor=#ffffff;points=[[0.005,0.63,0],[0.1,0.2,0],[0.9,0.2,0],[0.5,0,0],[0.995,0.63,0],[0.72,0.99,0],[0.5,1,0],[0.28,0.99,0]];shape=mxgraph.kubernetes.icon2;prIcon=user" vertex="1" parent="1">
          <mxGeometry x="968.75" y="906.2" width="29.17" height="28" as="geometry" />
        </mxCell>
        <mxCell id="cZO8qI_o07ikzMSFgw-F-168" value="" style="aspect=fixed;sketch=0;html=1;dashed=0;whitespace=wrap;fillColor=#2875E2;strokeColor=#ffffff;points=[[0.005,0.63,0],[0.1,0.2,0],[0.9,0.2,0],[0.5,0,0],[0.995,0.63,0],[0.72,0.99,0],[0.5,1,0],[0.28,0.99,0]];shape=mxgraph.kubernetes.icon2;prIcon=user" vertex="1" parent="1">
          <mxGeometry x="899.75" y="895.2" width="30" height="28.8" as="geometry" />
        </mxCell>
        <mxCell id="cZO8qI_o07ikzMSFgw-F-173" value="" style="aspect=fixed;sketch=0;html=1;dashed=0;whitespace=wrap;fillColor=#29FF7B;strokeColor=#ffffff;points=[[0.005,0.63,0],[0.1,0.2,0],[0.9,0.2,0],[0.5,0,0],[0.995,0.63,0],[0.72,0.99,0],[0.5,1,0],[0.28,0.99,0]];shape=mxgraph.kubernetes.icon2;prIcon=user" vertex="1" parent="1">
          <mxGeometry x="984.26" y="895.2" width="29.17" height="28" as="geometry" />
        </mxCell>
      </root>
    </mxGraphModel>
  </diagram>
</mxfile>
